<svg width="352" height="90" viewBox="0 0 352 90" fill="none" xmlns="http://www.w3.org/2000/svg">
<path d="M91.1376 87.713L91.5155 84.6751C95.7403 84.6865 92.6265 88.1681 96.5565 87.4741C98.2343 83.1959 103.033 88.0088 104.462 85.7446C104.417 86.086 106.329 86.2453 106.162 87.5879C106.827 85.2554 108.15 87.0758 109.374 86.4956C109.835 85.847 109.08 85.7901 108.77 85.0847L111.559 84.2996C112.617 85.0619 112.836 86.4387 111.649 86.6776C118.844 87.6106 153.466 90.2958 161.281 89.2035C160.329 87.4286 157.895 88.5891 157.064 85.8129C159.165 84.2769 160.079 86.3932 161.032 84.7661C161.704 88.8963 165.521 85.8015 166.965 90L167.622 87.6675L168.605 89.1125C177.719 86.78 170.706 87.952 178.709 88.5891C183.365 88.2819 185.655 85.0619 188.202 86.2794C187.816 86.2566 186.834 84.8116 188.051 84.22C188.202 86.2794 191.293 82.775 191.822 84.8571C193.009 84.6068 196.818 84.914 195.593 82.0923C196.206 83.5032 199.591 84.1062 197.536 85.3009C198.684 85.3919 199.788 85.8243 200.627 85.2099L199.176 84.4134C203.06 84.0379 205.124 86.2339 207.708 83.7193L206.303 82.5929C208.623 82.4336 210.565 82.2516 211.412 85.0278L209.008 85.8584C212.855 85.8243 215.183 85.665 218.418 84.22L217.277 84.1289C221.426 81.3982 242.829 79.2933 246.661 75.8571L244.976 73.6839L248.248 71.8976C247.863 71.8635 246.54 78.8837 246.238 78.1783C253.176 78.0417 289.241 76.6422 295.613 78.1327C298.175 79.3388 296.021 81.5575 295.983 81.8989C299.142 81.1138 297.374 79.6233 300.042 79.8281C300.767 80.2263 299.86 81.512 299.444 81.8192C300.623 81.5689 301.697 82.3312 301.802 81.3186C300.351 80.5221 301.016 77.8597 300.419 76.1188L303.851 76.3691L303.669 78.0531C304.433 78.11 305.687 73.4564 309.043 74.378C314.726 75.1403 329.29 74.5828 335.011 75.0038C334.905 76.0164 333.696 76.6081 332.487 77.1884C333.258 77.2453 334.429 76.9949 335.125 77.7231C333.764 75.9254 337.543 76.5512 336.47 75.7889C340.717 71.6814 346.091 75.4817 349.832 72.6941C350.21 68.9848 359.34 8.98862 359.377 4.57396C360.519 4.66498 361.652 4.74463 362 5.10872C361.72 4.07332 359.476 3.56131 358.282 4.15297L358.047 6.5196C355.289 7.33881 357.42 5.10872 354.737 5.25664C354.616 3.32238 357.087 2.92415 359.264 2.7421C357.314 2.50316 355.379 1.09229 354.563 3.19722C352.734 2.378 354.797 0.830594 352.591 0C351.011 0.557522 348.918 2.44627 347.119 1.28571L347.157 0.944374C342.781 -1.08091 340.385 3.84576 336.387 1.84324L336.825 1.19469C335.419 0.0682679 332.6 1.55879 330.053 0.34134C330.779 0.73957 331.399 2.13906 329.849 2.36662C326.917 1.12642 324.891 2.33249 322.76 0.819216L320.667 2.69659C310.411 2.2756 269.81 4.67636 259.487 4.88116L259.895 4.58534C244.159 5.40455 211.903 4.96081 195.593 7.38432C193.13 5.49557 189.653 5.89381 187.046 5.34766C188.481 6.14412 187.945 7.46397 186.811 7.37295C178.83 7.06574 186.237 8.65866 178.135 9.3641C168.778 11.0025 124.029 8.57901 115.829 6.88369C111.302 9.58028 105.837 7.41846 101.431 9.09102L101.892 8.45386C97.1913 9.43236 70.8677 6.49684 65.4034 7.3957L66.1139 7.80531C61.3222 9.44374 62.078 6.43995 58.3898 5.45006C58.7602 8.54488 54.6412 10.2288 53.0843 10.4336L53.1674 9.76233C50.817 10.2402 45.4283 12.8458 41.5663 13.1985L41.7854 11.5145C38.5054 13.2781 32.497 12.4248 30.1767 12.5613C24.9241 11.7762 16.9129 8.70417 9.76322 10.8091L5.40996 5.92794L4.7222 6.39444C4.7222 6.39444 -5.16335 64.3312 3.67167 76.8584L3.4525 78.5424L5.31926 78.3603C7.51101 79.225 8.622 77.2908 8.39527 78.9747L5.35705 78.713C7.57147 79.2364 5.96923 80.1011 5.07741 81.0455C6.00702 81.2276 6.89883 81.4437 7.62438 81.9671C8.09296 81.3299 7.32963 81.2617 6.99708 80.8862C8.22144 80.3173 9.96728 78.7585 11.3957 79.5664C13.6781 79.7598 11.4259 82.2971 14.0938 82.5247C28.1286 84.0607 41.7099 86.2452 55.9713 86.0746C56.2661 86.78 55.8806 86.7459 55.4574 87.0531C59.7804 86.3932 63.582 86.7118 67.5196 86.0177C68.5777 86.7914 68.8346 87.8268 69.1294 88.5322C68.5399 87.1214 90.7673 87.3262 91.1074 87.6903L91.1376 87.713Z" fill="white"/>
</svg>
